<svg width="128" height="128" viewBox="0 0 128 128" fill="none" xmlns="http://www.w3.org/2000/svg">
  <defs>
    <linearGradient id="bg" x1="18" y1="14" x2="110" y2="114" gradientUnits="userSpaceOnUse">
      <stop stop-color="#38BDF8"/>
      <stop offset="0.52" stop-color="#0EA5E9"/>
      <stop offset="1" stop-color="#2563EB"/>
    </linearGradient>
    <linearGradient id="badge" x1="80" y1="20" x2="106" y2="46" gradientUnits="userSpaceOnUse">
      <stop stop-color="#A7F3D0"/>
      <stop offset="1" stop-color="#34D399"/>
    </linearGradient>
    <filter id="shadow" x="19" y="20" width="90" height="87" filterUnits="userSpaceOnUse" color-interpolation-filters="sRGB">
      <feFlood flood-opacity="0" result="BackgroundImageFix"/>
      <feColorMatrix in="SourceAlpha" type="matrix" values="0 0 0 0 0 0 0 0 0 0 0 0 0 0 0 0 0 0 127 0" result="hardAlpha"/>
      <feOffset dy="6"/>
      <feGaussianBlur stdDeviation="6"/>
      <feColorMatrix type="matrix" values="0 0 0 0 0.027451 0 0 0 0 0.243137 0 0 0 0 0.545098 0 0 0 0.2 0"/>
      <feBlend mode="normal" in2="BackgroundImageFix" result="effect1_dropShadow_1_1"/>
      <feBlend mode="normal" in="SourceGraphic" in2="effect1_dropShadow_1_1" result="shape"/>
    </filter>
  </defs>
  <rect width="128" height="128" rx="30" fill="url(#bg)"/>
  <path d="M22 20C22 16.6863 24.6863 14 28 14H90C96.6274 14 102 19.3726 102 26V32C102 35.3137 99.3137 38 96 38H40C30.0589 38 22 29.9411 22 20Z" fill="white" fill-opacity="0.13"/>
  <g filter="url(#shadow)">
    <rect x="31" y="30" width="66" height="60" rx="16" fill="white"/>
    <path d="M42 46L64 63L86 46" stroke="#0EA5E9" stroke-width="6.5" stroke-linecap="round" stroke-linejoin="round"/>
    <path d="M42 74L56 61" stroke="#38BDF8" stroke-width="5.5" stroke-linecap="round"/>
    <path d="M86 74L72 61" stroke="#38BDF8" stroke-width="5.5" stroke-linecap="round"/>
  </g>
  <circle cx="89" cy="39" r="15" fill="url(#badge)"/>
  <circle cx="89" cy="39" r="14" stroke="white" stroke-opacity="0.32" stroke-width="2"/>
  <path d="M89 32V39L94 42" stroke="white" stroke-width="4.5" stroke-linecap="round" stroke-linejoin="round"/>
</svg>
